<svg width="68" height="68" viewBox="0 0 68 68" fill="none" xmlns="http://www.w3.org/2000/svg">
<path d="M18.4523 29.0385V16M31.4907 29.0385V16M44.5292 29.0385V17.3038M15.8759 47.2923C12.1729 47.2923 10.3215 47.2923 9.17148 46.1449C8.02148 45.0001 8.02148 43.1565 8.02148 39.4692V23.8231C8.02148 20.1358 8.02148 18.2922 9.17148 17.1474C10.3215 16.0026 12.1729 16 15.8759 16H34.3514C43.4079 16 47.9374 16 51.4057 17.841C53.956 19.197 56.0839 21.231 57.5494 23.7136C59.5417 27.0853 59.7294 31.5914 60.1049 40.6062C60.2092 43.0366 60.2614 44.2517 59.7842 45.1697C59.4347 45.8477 58.8976 46.4057 58.2326 46.7812C57.3303 47.2923 56.1099 47.2923 53.6691 47.2923H52.3523M26.2753 47.2923H41.9215" stroke="#9CEE8C" stroke-width="3.91154" stroke-linecap="round" stroke-linejoin="round"/>
<path d="M21.0591 52.5089C22.4423 52.5089 23.7689 51.9594 24.747 50.9813C25.725 50.0033 26.2745 48.6767 26.2745 47.2935C26.2745 45.9103 25.725 44.5838 24.747 43.6057C23.7689 42.6276 22.4423 42.0781 21.0591 42.0781C19.6759 42.0781 18.3494 42.6276 17.3713 43.6057C16.3932 44.5838 15.8438 45.9103 15.8438 47.2935C15.8438 48.6767 16.3932 50.0033 17.3713 50.9813C18.3494 51.9594 19.6759 52.5089 21.0591 52.5089ZM47.1361 52.5089C48.5193 52.5089 49.8458 51.9594 50.8239 50.9813C51.802 50.0033 52.3514 48.6767 52.3514 47.2935C52.3514 45.9103 51.802 44.5838 50.8239 43.6057C49.8458 42.6276 48.5193 42.0781 47.1361 42.0781C45.7529 42.0781 44.4263 42.6276 43.4482 43.6057C42.4701 44.5838 41.9207 45.9103 41.9207 47.2935C41.9207 48.6767 42.4701 50.0033 43.4482 50.9813C44.4263 51.9594 45.7529 52.5089 47.1361 52.5089Z" stroke="#9CEE8C" stroke-width="3.91154"/>
<path d="M8 29.0391H42.8596C44.4947 29.0391 45.0501 29.9987 46.3018 31.5007C47.7412 32.9089 48.7139 33.8972 50.0569 34.098C51.9344 34.3796 58.8813 34.2388 58.8813 34.2388" stroke="#9CEE8C" stroke-width="3.91154" stroke-linecap="round"/>
</svg>
